<mxfile host="app.diagrams.net" modified="2022-02-23T14:39:55.057Z" agent="5.0 (Windows NT 10.0; Win64; x64) AppleWebKit/537.36 (KHTML, like Gecko) Chrome/98.0.4758.102 Safari/537.36" etag="nkhp3QsAMIsDWTpQzuUU" version="16.6.3" type="github" pages="2">
  <diagram id="RtZOu5CQ-_5ClPts8naE" name="Page-1">
    <mxGraphModel dx="1038" dy="1716" grid="1" gridSize="10" guides="1" tooltips="1" connect="1" arrows="1" fold="1" page="1" pageScale="1" pageWidth="827" pageHeight="1169" math="0" shadow="0">
      <root>
        <mxCell id="0" />
        <mxCell id="1" parent="0" />
        <mxCell id="wHhrmEXW0-JnJZMjGAdd-2" value="&lt;b&gt;&lt;font style=&quot;font-size: 22px&quot;&gt;Servo Motor&lt;/font&gt;&lt;/b&gt;" style="rounded=1;whiteSpace=wrap;html=1;fillColor=#e1d5e7;strokeColor=#9673a6;strokeWidth=5;" parent="1" vertex="1">
          <mxGeometry x="315" y="450" width="150" height="60" as="geometry" />
        </mxCell>
        <mxCell id="wHhrmEXW0-JnJZMjGAdd-3" value="&lt;b&gt;&lt;font style=&quot;font-size: 22px&quot;&gt;Arduino Uno&lt;/font&gt;&lt;/b&gt;" style="rounded=0;whiteSpace=wrap;html=1;fillColor=#f8cecc;strokeColor=#b85450;gradientColor=#ea6b66;" parent="1" vertex="1">
          <mxGeometry x="330" y="100" width="120" height="310" as="geometry" />
        </mxCell>
        <mxCell id="wHhrmEXW0-JnJZMjGAdd-5" value="&lt;b&gt;DC Motor&lt;/b&gt;" style="rounded=1;whiteSpace=wrap;html=1;fontSize=22;fillColor=#e1d5e7;strokeColor=#9673a6;strokeWidth=5;" parent="1" vertex="1">
          <mxGeometry x="510" y="330" width="155" height="60" as="geometry" />
        </mxCell>
        <mxCell id="wHhrmEXW0-JnJZMjGAdd-6" value="&lt;b&gt;Rain Sensor&lt;/b&gt;" style="rounded=1;whiteSpace=wrap;html=1;fontSize=22;fillColor=#f8cecc;strokeColor=#B85450;strokeWidth=5;" parent="1" vertex="1">
          <mxGeometry x="320" width="150" height="60" as="geometry" />
        </mxCell>
        <mxCell id="wHhrmEXW0-JnJZMjGAdd-8" value="&lt;b&gt;Ultrasonic&amp;nbsp;&lt;br&gt;Sensor&lt;/b&gt;" style="rounded=1;whiteSpace=wrap;html=1;fontSize=22;fillColor=#f8cecc;strokeColor=#b85450;strokeWidth=5;" parent="1" vertex="1">
          <mxGeometry x="120" y="200" width="150" height="60" as="geometry" />
        </mxCell>
        <mxCell id="yxMff1gCNrw6VYnFxoYp-1" value="&lt;b&gt;Power Supply&lt;/b&gt;" style="rounded=1;whiteSpace=wrap;html=1;fontSize=22;fillColor=#f8cecc;strokeColor=#b85450;strokeWidth=5;" parent="1" vertex="1">
          <mxGeometry x="120" y="310" width="150" height="60" as="geometry" />
        </mxCell>
        <mxCell id="yxMff1gCNrw6VYnFxoYp-3" value="" style="endArrow=classic;html=1;rounded=1;fontSize=22;exitX=1;exitY=0.5;exitDx=0;exitDy=0;entryX=0.007;entryY=0.778;entryDx=0;entryDy=0;entryPerimeter=0;strokeWidth=5;" parent="1" source="yxMff1gCNrw6VYnFxoYp-1" target="wHhrmEXW0-JnJZMjGAdd-3" edge="1">
          <mxGeometry width="50" height="50" relative="1" as="geometry">
            <mxPoint x="290" y="320" as="sourcePoint" />
            <mxPoint x="340" y="270" as="targetPoint" />
          </mxGeometry>
        </mxCell>
        <mxCell id="yxMff1gCNrw6VYnFxoYp-4" value="" style="endArrow=classic;html=1;rounded=1;fontSize=22;strokeWidth=5;exitX=1;exitY=0.5;exitDx=0;exitDy=0;entryX=0.083;entryY=0.419;entryDx=0;entryDy=0;entryPerimeter=0;" parent="1" source="wHhrmEXW0-JnJZMjGAdd-8" target="wHhrmEXW0-JnJZMjGAdd-3" edge="1">
          <mxGeometry width="50" height="50" relative="1" as="geometry">
            <mxPoint x="390" y="250" as="sourcePoint" />
            <mxPoint x="440" y="200" as="targetPoint" />
          </mxGeometry>
        </mxCell>
        <mxCell id="yxMff1gCNrw6VYnFxoYp-5" value="" style="endArrow=classic;html=1;rounded=1;fontSize=22;strokeWidth=5;exitX=0.448;exitY=1.023;exitDx=0;exitDy=0;exitPerimeter=0;startArrow=none;" parent="1" source="wHhrmEXW0-JnJZMjGAdd-4" edge="1">
          <mxGeometry width="50" height="50" relative="1" as="geometry">
            <mxPoint x="576.44" y="241.38" as="sourcePoint" />
            <mxPoint x="580" y="330" as="targetPoint" />
            <Array as="points" />
          </mxGeometry>
        </mxCell>
        <mxCell id="yxMff1gCNrw6VYnFxoYp-7" value="" style="endArrow=classic;html=1;rounded=1;fontSize=22;strokeWidth=5;exitX=0.413;exitY=1.003;exitDx=0;exitDy=0;exitPerimeter=0;entryX=0.43;entryY=0;entryDx=0;entryDy=0;entryPerimeter=0;" parent="1" source="wHhrmEXW0-JnJZMjGAdd-3" target="wHhrmEXW0-JnJZMjGAdd-2" edge="1">
          <mxGeometry width="50" height="50" relative="1" as="geometry">
            <mxPoint x="390" y="250" as="sourcePoint" />
            <mxPoint x="440" y="200" as="targetPoint" />
          </mxGeometry>
        </mxCell>
        <mxCell id="yxMff1gCNrw6VYnFxoYp-8" value="" style="endArrow=classic;html=1;rounded=1;fontSize=22;strokeWidth=5;" parent="1" edge="1">
          <mxGeometry width="50" height="50" relative="1" as="geometry">
            <mxPoint x="450" y="249.5" as="sourcePoint" />
            <mxPoint x="510" y="249.5" as="targetPoint" />
          </mxGeometry>
        </mxCell>
        <mxCell id="yxMff1gCNrw6VYnFxoYp-9" value="" style="endArrow=classic;html=1;rounded=1;fontSize=22;strokeWidth=5;entryX=0.5;entryY=0;entryDx=0;entryDy=0;" parent="1" target="wHhrmEXW0-JnJZMjGAdd-3" edge="1">
          <mxGeometry width="50" height="50" relative="1" as="geometry">
            <mxPoint x="390" y="60" as="sourcePoint" />
            <mxPoint x="388" y="100" as="targetPoint" />
          </mxGeometry>
        </mxCell>
        <mxCell id="yxMff1gCNrw6VYnFxoYp-10" value="&lt;b&gt;LED Display&lt;/b&gt;" style="rounded=1;whiteSpace=wrap;html=1;fontSize=22;strokeColor=#9673a6;strokeWidth=5;fillColor=#e1d5e7;" parent="1" vertex="1">
          <mxGeometry x="511" y="120" width="159" height="60" as="geometry" />
        </mxCell>
        <mxCell id="wHhrmEXW0-JnJZMjGAdd-4" value="&lt;b&gt;Relay&lt;/b&gt;" style="rounded=1;whiteSpace=wrap;html=1;fontSize=22;fillColor=#e1d5e7;strokeColor=#9673a6;strokeWidth=5;" parent="1" vertex="1">
          <mxGeometry x="511" y="225" width="155" height="60" as="geometry" />
        </mxCell>
        <mxCell id="yxMff1gCNrw6VYnFxoYp-12" value="" style="endArrow=classic;html=1;rounded=1;fontSize=22;strokeWidth=5;entryX=0;entryY=0.5;entryDx=0;entryDy=0;exitX=0.993;exitY=0.159;exitDx=0;exitDy=0;exitPerimeter=0;" parent="1" source="wHhrmEXW0-JnJZMjGAdd-3" target="yxMff1gCNrw6VYnFxoYp-10" edge="1">
          <mxGeometry width="50" height="50" relative="1" as="geometry">
            <mxPoint x="390" y="260" as="sourcePoint" />
            <mxPoint x="440" y="210" as="targetPoint" />
          </mxGeometry>
        </mxCell>
        <mxCell id="81zJ5JRf5Q3eGqDcp2pH-1" value="&lt;font style=&quot;font-size: 22px&quot;&gt;&lt;b&gt;LDR Sensor&lt;/b&gt;&lt;/font&gt;" style="rounded=1;whiteSpace=wrap;html=1;fillColor=#f8cecc;strokeColor=#b85450;strokeWidth=5;" vertex="1" parent="1">
          <mxGeometry x="120" y="110" width="150" height="60" as="geometry" />
        </mxCell>
      </root>
    </mxGraphModel>
  </diagram>
  <diagram id="a9Dm9juq-jy84gX0eqp6" name="Page-2">
    <mxGraphModel dx="1038" dy="547" grid="1" gridSize="10" guides="1" tooltips="1" connect="1" arrows="1" fold="1" page="1" pageScale="1" pageWidth="827" pageHeight="1169" math="0" shadow="0">
      <root>
        <mxCell id="ts8BnqQKctXhjWccqVpp-0" />
        <mxCell id="ts8BnqQKctXhjWccqVpp-1" parent="ts8BnqQKctXhjWccqVpp-0" />
      </root>
    </mxGraphModel>
  </diagram>
</mxfile>
